<svg xmlns="http://www.w3.org/2000/svg" viewBox="0 0 720 460" role="img" aria-labelledby="title desc">
  <title id="title">Milliyetçilik</title>
  <desc id="desc">Bayrak, yıldız ve birlik halkalarıyla hazırlanmış tematik illüstrasyon.</desc>
  <defs>
    <linearGradient id="bg" x1="0" y1="0" x2="1" y2="1">
      <stop offset="0" stop-color="#7c1a2d"/>
      <stop offset="1" stop-color="#321018"/>
    </linearGradient>
  </defs>
  <rect width="720" height="460" rx="40" fill="url(#bg)"/>
  <circle cx="360" cy="222" r="136" fill="none" stroke="#f6d182" stroke-opacity="0.18" stroke-width="12"/>
  <circle cx="360" cy="222" r="96" fill="none" stroke="#f6d182" stroke-opacity="0.12" stroke-width="10"/>
  <path d="M166 320c52-74 116-111 194-111s142 37 194 111" fill="none" stroke="#ffffff" stroke-opacity="0.08" stroke-width="16" stroke-linecap="round"/>
  <g transform="translate(226 122)">
    <rect x="0" y="0" width="268" height="176" rx="28" fill="#fff8ed" fill-opacity="0.1" stroke="#ffffff" stroke-opacity="0.12"/>
    <path d="M54 136V42h104c44 0 74 21 96 54-22 33-52 54-96 54Z" fill="#d62d42"/>
    <circle cx="112" cy="92" r="28" fill="#fff8ed"/>
    <circle cx="121" cy="92" r="22" fill="#d62d42"/>
    <path d="M151 79l6 12 13 1-10 8 3 13-12-7-12 7 3-13-10-8 13-1Z" fill="#f6d182"/>
    <path d="M52 136h166" stroke="#f6d182" stroke-width="10" stroke-linecap="round"/>
  </g>
</svg>
