<svg xmlns="http://www.w3.org/2000/svg" viewBox="0 0 720 480" role="img" aria-labelledby="title desc">
  <title id="title">Egemenlik ve Meclis</title>
  <desc id="desc">Meclis, bayrak ve yükselen ışınlarla hazırlanmış tematik illüstrasyon.</desc>
  <defs>
    <linearGradient id="bg" x1="0" y1="0" x2="1" y2="1">
      <stop offset="0" stop-color="#65111d"/>
      <stop offset="1" stop-color="#2a0810"/>
    </linearGradient>
    <linearGradient id="gold" x1="0" y1="0" x2="1" y2="1">
      <stop offset="0" stop-color="#f6d182"/>
      <stop offset="1" stop-color="#d89b31"/>
    </linearGradient>
  </defs>
  <rect width="720" height="480" rx="42" fill="url(#bg)"/>
  <circle cx="548" cy="96" r="96" fill="#f6d182" fill-opacity="0.12"/>
  <g opacity="0.22" stroke="#f6d182" stroke-width="10" stroke-linecap="round">
    <path d="M360 68v68"/>
    <path d="M296 84l30 60"/>
    <path d="M424 84l-30 60"/>
    <path d="M240 126l54 43"/>
    <path d="M480 126l-54 43"/>
  </g>
  <g transform="translate(148 168)">
    <rect x="0" y="88" width="424" height="112" rx="18" fill="#fff8ed" fill-opacity="0.12"/>
    <rect x="18" y="64" width="388" height="120" rx="24" fill="#fff8ed" fill-opacity="0.12"/>
    <rect x="52" y="120" width="36" height="64" rx="8" fill="#f4d59b"/>
    <rect x="120" y="120" width="36" height="64" rx="8" fill="#f4d59b"/>
    <rect x="188" y="120" width="36" height="64" rx="8" fill="#f4d59b"/>
    <rect x="256" y="120" width="36" height="64" rx="8" fill="#f4d59b"/>
    <rect x="324" y="120" width="36" height="64" rx="8" fill="#f4d59b"/>
    <path d="M0 200h424" stroke="#f4d59b" stroke-width="10" stroke-linecap="round"/>
    <path d="M212 0v120" stroke="#f4d59b" stroke-width="10" stroke-linecap="round"/>
    <path d="M222 14h96v66l-96-18Z" fill="#cf253c"/>
    <circle cx="270" cy="44" r="18" fill="#fff8ed"/>
    <circle cx="276" cy="44" r="14" fill="#cf253c"/>
    <path d="M294 35l4 9 10 1-8 6 3 10-9-5-9 5 2-10-7-6 10-1Z" fill="url(#gold)"/>
  </g>
  <path d="M120 408c88-34 167-50 240-50 84 0 164 18 240 50" fill="none" stroke="#ffffff" stroke-opacity="0.08" stroke-width="18" stroke-linecap="round"/>
</svg>
